<svg xmlns="http://www.w3.org/2000/svg" width="256" height="256" xml:space="preserve"><g fill="#FF6384"><path d="M68.8 196.9c.5.5.8 1.2.8 2 0 1.7-1.5 3-3.2 3-.9 0-1.8-.3-2.4-1a11.3 11.3 0 0 0-8.3-4c-7.4 0-12.8 5.7-12.8 13.5 0 7.7 5.4 13.3 12.8 13.3 3 0 6.1-1.3 8.3-3.8.6-.6 1.5-1 2.4-1a3 3 0 0 1 2.4 5c-2.8 3.2-7 5.8-13.1 5.8-11 0-19.6-7.9-19.6-19.3S44.6 191 55.7 191c6 0 10.3 2.6 13.1 5.9zM97.1 229.3a3 3 0 0 1-3-3V212c0-4.1-2.1-5.4-5.4-5.4-3 0-5.5 1.7-6.9 3.6v16.2a3 3 0 0 1-6 0v-32.2a3 3 0 0 1 3.1-2.9 3 3 0 0 1 3 3v11.3c1.7-2 5.2-4.3 9.5-4.3 5.8 0 8.7 3 8.7 8.5v16.6a3 3 0 0 1-3 3zM127.2 229.3h-.4c-.7 0-2.6-.6-2.6-2.7v-.5c-2 2.3-5.2 3.6-8.7 3.6-4.4 0-9.5-3-9.5-9 0-6.2 5-8.8 9.5-8.8 3.6 0 6.8 1.2 8.7 3.5v-4.2c0-3-2.6-5-6.3-5-2.4 0-4.5.7-6.5 2.1-.3.3-.7.4-1.2.4-1.1 0-2.3-.9-2.3-2.3 0-.5.1-1 .4-1.3 2.1-2.7 7.1-3.8 10.5-3.8 6 0 11.3 2.5 11.3 9.8v15.3a3 3 0 0 1-3 3zm-3-10.5c-1.4-1.8-3.9-2.7-6.4-2.7-3.2 0-5.7 1.8-5.7 4.7 0 2.9 2.5 4.7 5.7 4.7 2.5 0 5-.9 6.4-2.7v-4zM148.6 207.3a8.2 8.2 0 0 0-6.2 3.3v15.8a3 3 0 0 1-3 3 3 3 0 0 1-3-3v-21.9a3 3 0 0 1 3.1-2.9 3 3 0 0 1 3 3v1.3c1.4-2 3.5-4.3 6.4-4.3 1.6 0 2.6 1.1 2.6 2.6 0 1.8-1.2 2.9-3 3.1zM165.4 229.7c-4.6 0-7-2.5-7-7v-15.5h-2.2a2.6 2.6 0 0 1-2.6-2.7c0-1.4 1.2-2.5 2.6-2.5h2.2v-4.8a3 3 0 0 1 3.1-3 3 3 0 0 1 3 3v4.8h3.2c1.4 0 2.5 1.1 2.5 2.6 0 1.4-1 2.6-2.5 2.6h-3.3v14c0 2 1.2 3.2 2.6 3.2l1.2-.2c1.7 0 2.7 1.1 2.7 2.6 0 1.8-1.7 2.9-5.5 2.9zM178.3 229.6a4 4 0 0 1-4-4 4 4 0 0 1 4-4 4 4 0 0 1 4 4 4 4 0 0 1-4 4zM188.2 240c-3.5 0-6.1-1-6.1-3.1 0-1.3 1-2.4 2.4-2.4.8 0 1.4.5 2.8.5 2.3 0 4-1.4 4-4.5v-26a3 3 0 0 1 3-2.9 3 3 0 0 1 3 3v25.9c0 5.8-3 9.5-9 9.5zm9.7-45a3.7 3.7 0 1 1-7.4 0 3.7 3.7 0 0 1 7.4 0zM214 229.7c-3.6 0-8.4-1.1-10.5-3.6-.3-.3-.6-.9-.6-1.4 0-1.4 1.3-2.5 2.6-2.5.5 0 1 0 1.4.4a14 14 0 0 0 7.4 2.4c3.5 0 5.3-1.5 5.3-3.6 0-5.3-16.4-1.5-16.4-11.9 0-4.4 3.9-8.2 10.8-8.2 3.6 0 7.7 1.1 9.6 3.2.3.4.5.9.5 1.4 0 1.3-1.2 2.3-2.5 2.3-.3 0-.8-.1-1.2-.4-1.7-1.1-4-1.9-6.4-1.9-3 0-5 1.5-5 3.3 0 4.8 16.3 1.2 16.3 12 0 4.8-4 8.5-11.2 8.5z"/></g><path fill="#36A2EB" d="M194.4 96.6c-22.4.4-17.7 14.6-33.5 18.1-16 3.7-18.5-39-34.5-39s-19.6 41.4-39.6 70l-.6.8 43 24.8 65.2-37.7v-37z"/><path fill="#FFCE56" d="M194.4 95.3c-7.5-9.6-12.6-20.7-23.5-20.7-19.3 0-14.2 31.6-35.6 31.6-21.4 0-23.6-34-47.8-2-7.7 10-14 21.4-18.8 32.1l60.5 35 65.2-37.7V95.3z"/><path opacity=".8" fill="#FE6184" d="M64 108.3C71.3 88 74.5 71.6 88.5 71.6c21.4 0 26.4 60 44.8 53.9 18.3-6.1 16.2-38.7 44.7-38.7 5.5 0 11 3.3 16.4 8.7v38.1l-65.2 37.7L64 133.6v-25.3z"/><path fill="#E7E9ED" d="M129.1 176 60 136V56L129 16l69.3 40v80l-69.3 40zM68 131.3l61.1 35.3 61.2-35.3V60.7l-61.2-35.3L68 60.7v70.6z"/></svg>